<svg width="24" height="6" viewBox="0 0 24 6" fill="none" xmlns="http://www.w3.org/2000/svg">
<path fill-rule="evenodd" clip-rule="evenodd" d="M5.25 3C5.25 3.69619 4.97344 4.36387 4.48116 4.85616C3.98887 5.34844 3.32119 5.625 2.625 5.625C1.92881 5.625 1.26113 5.34844 0.768845 4.85616C0.276562 4.36387 0 3.69619 0 3C0 2.30381 0.276562 1.63613 0.768845 1.14384C1.26113 0.651561 1.92881 0.375 2.625 0.375C3.32119 0.375 3.98887 0.651561 4.48116 1.14384C4.97344 1.63613 5.25 2.30381 5.25 3ZM14.625 3C14.625 3.34472 14.5571 3.68606 14.4252 4.00454C14.2933 4.32302 14.0999 4.6124 13.8562 4.85616C13.6124 5.09991 13.323 5.29326 13.0045 5.42518C12.6861 5.5571 12.3447 5.625 12 5.625C11.6553 5.625 11.3139 5.5571 10.9955 5.42518C10.677 5.29326 10.3876 5.09991 10.1438 4.85616C9.90009 4.6124 9.70674 4.32302 9.57482 4.00454C9.4429 3.68606 9.375 3.34472 9.375 3C9.375 2.30381 9.65156 1.63613 10.1438 1.14384C10.6361 0.651561 11.3038 0.375 12 0.375C12.6962 0.375 13.3639 0.651561 13.8562 1.14384C14.3484 1.63613 14.625 2.30381 14.625 3ZM21.375 5.625C21.7197 5.625 22.0611 5.5571 22.3795 5.42518C22.698 5.29326 22.9874 5.09991 23.2312 4.85616C23.4749 4.6124 23.6683 4.32302 23.8002 4.00454C23.9321 3.68606 24 3.34472 24 3C24 2.65528 23.9321 2.31394 23.8002 1.99546C23.6683 1.67698 23.4749 1.3876 23.2312 1.14384C22.9874 0.90009 22.698 0.706735 22.3795 0.574817C22.0611 0.442898 21.7197 0.375 21.375 0.375C20.6788 0.375 20.0111 0.651561 19.5188 1.14384C19.0266 1.63613 18.75 2.30381 18.75 3C18.75 3.69619 19.0266 4.36387 19.5188 4.85616C20.0111 5.34844 20.6788 5.625 21.375 5.625Z" fill="white"/>
</svg>
