<svg width="30" height="30" viewBox="0 0 30 30" fill="none" xmlns="http://www.w3.org/2000/svg">
<path d="M25.9082 24.2852C25.0206 24.7836 24.0413 25.0394 23.0388 25.0394C21.7294 25.0394 20.4341 24.5991 19.4035 23.7902C17.7948 24.4616 16.1403 24.7259 14.534 24.6468C14.7712 24.1003 14.9253 23.5074 14.9772 22.8811C16.3713 22.8934 17.799 22.5985 19.1745 21.9409C19.3384 21.8625 19.5225 21.8361 19.7019 21.8653C19.8813 21.8945 20.0475 21.9779 20.1782 22.1042C21.2643 23.1543 22.8484 23.5037 24.2569 23.0663C23.4886 21.4639 23.2832 19.6316 23.6731 17.8988C23.7946 17.3588 23.9493 16.8465 24.1021 16.3405C24.4145 15.3058 24.719 14.2973 24.7162 13.1317C24.7031 7.70661 20.1976 3.31691 14.7775 3.42458C9.51816 3.53047 5.23924 7.89574 5.23924 13.1556C5.23923 14.7253 5.61287 16.1835 6.26445 17.468C5.74407 17.7819 5.27611 18.1755 4.87821 18.6316C3.979 17.0198 3.45701 15.1619 3.45703 13.1556C3.45711 6.96769 8.55543 1.76741 14.7417 1.64281C21.1465 1.51843 26.4829 6.71604 26.4983 13.1274C26.5016 14.462 26.1704 15.5974 25.824 16.7851C25.6962 17.2237 25.5662 17.6694 25.4502 18.1349C25.0352 19.8 25.3625 21.5705 26.2689 23.019C26.5417 23.4616 26.3649 24.05 25.9082 24.2852Z" fill="white"/>
<path d="M4.78943 27.2712C5.12692 26.4788 5.20774 25.592 5.01833 24.7503L5.01832 24.7503C4.95636 24.475 4.87599 24.2086 4.79849 23.9518C4.75896 23.8208 4.72017 23.6922 4.68495 23.5662C4.57881 23.1866 4.49858 22.8108 4.49959 22.3961C4.50593 19.7632 6.69315 17.6318 9.3241 17.6841L4.78943 27.2712ZM4.78943 27.2712C5.39973 27.4018 6.05652 27.2278 6.51807 26.7816L4.78943 27.2712ZM3.44477 27.2679L3.44476 27.2679L3.44423 27.2688C3.26062 27.5667 3.37965 27.9565 3.68136 28.1137C4.14758 28.375 4.66254 28.5094 5.18966 28.5094C5.84916 28.5094 6.50198 28.2972 7.03295 27.9051C10.8569 29.4359 15.1468 26.5328 15.1467 22.4077C15.1467 19.2269 12.528 16.5558 9.3481 16.4918L9.348 16.4918C6.05683 16.4279 3.31498 19.098 3.30704 22.3932C3.30588 22.8684 3.38637 23.2929 3.49266 23.704C3.54144 23.8927 3.59603 24.0799 3.65062 24.2671C3.65533 24.2832 3.66003 24.2994 3.66474 24.3155C3.72423 24.5197 3.78335 24.7247 3.83642 24.9377L3.98197 24.9014L3.83642 24.9377C4.03375 25.7294 3.87867 26.5746 3.44477 27.2679ZM6.83678 26.6217C6.71673 26.6412 6.60552 26.697 6.51808 26.7815L6.83678 26.6217ZM13.9542 22.4077C13.9542 25.8281 10.2956 28.1572 7.18975 26.6723L9.32414 17.6841C11.8765 17.7355 13.9542 19.8551 13.9542 22.4077Z" fill="white" stroke="white" stroke-width="0.3"/>
</svg>
