<svg width="264" height="264" viewBox="0 0 264 264" fill="none" xmlns="http://www.w3.org/2000/svg">
<path d="M131.985 260.156L131.307 259.758C99.8938 241.376 73.4481 221.357 52.7146 200.24C36.0939 183.317 23.0775 165.665 14.019 147.762C5.94085 131.797 2.57986 118.574 1.17945 110.297C-0.346266 101.334 0.0370049 96.1381 0.0591167 95.858V95.7253C0.0591167 95.6 0.0591167 95.4747 0.0591167 95.3568C0.0591167 85.2149 2.01969 75.3825 5.88189 66.1176C9.61141 57.1698 14.9551 49.1358 21.7581 42.2369C28.5612 35.338 36.492 29.9207 45.3146 26.1322C54.4541 22.211 64.1612 20.2283 74.1704 20.2283C85.9265 20.2283 97.1593 22.9333 107.574 28.277C116.986 33.1048 125.403 40.0405 132.022 48.4061C138.641 40.0405 147.066 33.1048 156.47 28.277C166.885 22.9333 178.125 20.2283 189.874 20.2283C199.883 20.2283 209.59 22.2184 218.73 26.1322C227.56 29.9207 235.483 35.338 242.286 42.2369C249.089 49.1358 254.433 57.1698 258.163 66.1176C262.025 75.3825 263.985 85.2149 263.985 95.3568C263.985 96.0791 263.971 96.8383 263.941 97.7375C263.956 103.885 262.666 126.122 245.537 155.906C235.844 172.755 222.636 189.332 206.274 205.179C186.366 224.46 161.593 242.828 132.641 259.765L131.963 260.163L131.985 260.156ZM2.70516 97.31C2.67568 99.3295 2.78624 103.752 3.86234 110.039C5.24801 118.147 8.57215 131.097 16.525 146.759C30.5513 174.392 61.9647 215.91 131.978 257.023C184.361 226.266 221.789 191.786 243.208 154.55C260.027 125.311 261.273 103.656 261.258 97.7154V97.6712C261.288 96.7867 261.302 96.0496 261.302 95.3494C261.302 55.4156 229.262 22.9186 189.889 22.9186C167.453 22.9186 146.756 33.3038 133.113 51.4133L132.037 52.8432L130.961 51.4133C117.318 33.3038 96.6213 22.9186 74.1852 22.9186C34.7893 22.926 2.74938 55.4155 2.74938 95.3568C2.74938 95.4674 2.74938 95.5705 2.74938 95.6811C2.74938 95.7695 2.74938 95.858 2.74938 95.9464V97.31H2.69779H2.70516Z" fill="#AEDAE1"/>
<mask id="mask0_1633_4996" style="mask-type:luminance" maskUnits="userSpaceOnUse" x="12" y="32" width="240" height="215">
<path d="M251.861 98.9537C251.861 62.0859 221.973 32.1982 185.105 32.1982C163.458 32.1982 144.221 42.5023 132.03 58.4743C119.831 42.5096 100.594 32.1982 78.954 32.1982C42.0863 32.1982 12.1985 62.0859 12.1985 98.9537C12.1985 99.1379 12.1985 99.3222 12.1985 99.4991C12.1985 99.4991 6.05878 173.979 131.993 246.653C247.151 180.192 251.868 112.228 251.831 101.084C251.853 100.376 251.868 99.6612 251.868 98.9463L251.861 98.9537Z" fill="white"/>
</mask>
<g mask="url(#mask0_1633_4996)">
<path d="M251.861 98.9537C251.861 62.0859 221.973 32.1982 185.105 32.1982C163.458 32.1982 144.221 42.5023 132.03 58.4743C119.832 42.5096 100.594 32.1982 78.9542 32.1982C42.0865 32.1982 12.1987 62.0859 12.1987 98.9537C12.1987 99.1379 12.1987 99.3222 12.1987 99.4991C12.1987 99.4991 6.05902 173.979 131.993 246.653C247.151 180.192 251.868 112.228 251.831 101.084C251.854 100.376 251.868 99.6612 251.868 98.9463L251.861 98.9537Z" fill="#D5ECEF"/>
<path d="M190.545 110.297L203.311 170.345C204.756 177.134 201.063 183.966 194.599 186.487C187.405 189.288 179.297 185.816 176.364 178.674L152.601 120.844L190.552 110.297H190.545Z" fill="#71B7C3"/>
<path d="M73.4339 110.297L48.595 166.431C45.7868 172.778 47.9906 180.222 53.7986 184.018C60.2626 188.241 68.9157 186.509 73.2496 180.126L108.4 128.421L73.4339 110.297Z" fill="#8CC9D1"/>
<path d="M108.407 128.421L79.9419 170.294C71.451 151.44 81.1212 114.277 81.1212 114.277L108.407 128.421Z" fill="#71B7C3"/>
<path d="M79.6178 94.7156C91.2191 69.0733 102.231 58.2532 102.231 28.5866C102.231 -1.08004 161.468 -3.37229 160.009 30.4587C160.009 30.4587 157.252 51.0153 165.043 69.685C168.22 74.6307 173.386 80.8146 180.838 84.2641C192.204 89.5267 189.639 108.174 189.639 108.174C189.639 108.174 190.236 94.863 178.583 88.1189C178.052 87.8093 177.536 87.4998 177.028 87.1976C195.646 107.695 186.757 145.823 135.951 145.823C85.1457 145.823 70.2129 115.501 79.6178 94.7229V94.7156Z" fill="#7B3321"/>
<path d="M189.683 297.4C189.683 303.311 189.462 309.126 189.041 314.801C189.041 361.575 74.9741 361.575 74.9741 314.801C74.554 309.126 74.3329 303.311 74.3329 297.4C74.3329 233.231 100.159 181.217 132.008 181.217C163.856 181.217 189.683 233.231 189.683 297.4Z" fill="#101C26"/>
<path d="M131.993 85.1854C116.198 85.1854 116.692 91.1334 116.692 91.1334C116.692 98.9315 131.993 104.253 131.993 104.253C131.993 104.253 147.294 98.9315 147.294 91.1334C147.294 91.1334 147.788 85.1854 131.993 85.1854Z" fill="#71B7C3"/>
<path d="M190.567 110.297C175.951 95.6811 132 91.1335 132 91.1335C132 91.1335 88.0496 95.6885 73.4337 110.297C77.7603 142.558 81.0475 170.979 100.042 181.217C100.042 181.217 81.6593 205.068 81.6593 232.619L122.809 246.395L132 231.949L141.192 246.395L182.342 232.619C182.342 205.068 163.959 181.217 163.959 181.217C182.953 170.979 186.241 142.558 190.567 110.297Z" fill="#AEDAE1"/>
<path d="M132 91.1335C132 91.1335 88.0496 95.6885 73.4337 110.304C74.4066 117.564 75.328 124.625 76.3893 131.333C80.0673 128.097 105.503 104.29 131.168 104.26C157.385 104.224 183.853 128.031 187.612 131.333C188.673 124.625 189.594 117.564 190.567 110.304C175.951 95.6885 132 91.1335 132 91.1335Z" fill="#D5ECEF"/>
<path d="M132 91.1335C132 91.1335 88.0496 95.6885 73.4337 110.304C74.4066 117.564 105.503 96.3076 131.168 96.2708C157.385 96.2339 189.587 117.557 190.567 110.304C175.951 95.6885 132 91.1335 132 91.1335Z" fill="white"/>
<path d="M144.648 87.5292C144.648 109.833 119.345 109.833 119.345 87.5292V67.5402C119.345 57.7226 125.013 49.7697 132 49.7697C138.987 49.7697 144.655 57.7226 144.655 67.5402V87.5292H144.648Z" fill="url(#paint0_linear_1633_4996)"/>
<path d="M142.481 76.5618C142.481 92.438 121.512 92.438 121.512 76.5618V62.3292C121.512 55.3419 126.207 49.6739 132 49.6739C137.793 49.6739 142.489 55.3419 142.489 62.3292V76.5618H142.481Z" fill="#B87356"/>
<path d="M116.692 91.1335L125.116 95.0767L131.993 104.253C131.993 104.253 116.692 105.44 116.692 91.1335Z" fill="white"/>
<path d="M147.294 91.1335L138.87 95.0767L131.993 104.253C131.993 104.253 147.294 105.44 147.294 91.1335Z" fill="white"/>
<path d="M131.993 104.253L142.489 112.191L132.008 231.949L141.199 246.395C137.012 207.5 138.56 163.107 147.294 111.815L131.993 104.26V104.253Z" fill="#8CC9D1"/>
<path d="M84.4821 162.93C84.4821 162.93 103.616 180.929 130.342 181.652L100.041 181.217C92.9582 177.399 88.0642 171.06 84.4821 162.93Z" fill="#8CC9D1"/>
<path d="M179.548 162.93C179.548 162.93 160.414 180.929 133.688 181.652L163.989 181.217C171.072 177.399 175.966 171.06 179.548 162.93Z" fill="#8CC9D1"/>
<path d="M132 181.674C131.448 181.674 130.887 181.674 130.342 181.652L132 181.674Z" fill="#AEDAE1"/>
<path d="M122.817 246.388L81.6666 232.612C81.6666 205.23 99.8204 181.504 100.049 181.217C99.8794 181.593 77.856 229.863 122.824 246.388H122.817Z" fill="#8CC9D1"/>
<path d="M141.199 246.388L182.349 232.612C182.349 205.23 164.195 181.504 163.967 181.217C164.136 181.593 186.16 229.863 141.192 246.388H141.199Z" fill="#8CC9D1"/>
<path d="M131.993 104.253L142.489 112.191L132.008 231.949C135.066 172.91 138.066 114.159 131.993 104.26V104.253Z" fill="#D5ECEF"/>
<path d="M136.032 120.623C136.032 121.92 134.978 122.974 133.681 122.974C132.384 122.974 131.33 121.92 131.33 120.623C131.33 119.326 132.384 118.272 133.681 118.272C134.978 118.272 136.032 119.326 136.032 120.623Z" fill="#8CC9D1"/>
<path d="M133.688 121.869C135.508 121.869 136.983 120.394 136.983 118.574C136.983 116.755 135.508 115.28 133.688 115.28C131.869 115.28 130.394 116.755 130.394 118.574C130.394 120.394 131.869 121.869 133.688 121.869Z" fill="#D5ECEF"/>
<path d="M133.688 120.52C134.763 120.52 135.634 119.649 135.634 118.574C135.634 117.5 134.763 116.628 133.688 116.628C132.613 116.628 131.742 117.5 131.742 118.574C131.742 119.649 132.613 120.52 133.688 120.52Z" fill="white"/>
<path d="M135.044 159.768C135.044 161.066 133.99 162.12 132.693 162.12C131.396 162.12 130.342 161.066 130.342 159.768C130.342 158.471 131.396 157.417 132.693 157.417C133.99 157.417 135.044 158.471 135.044 159.768Z" fill="#8CC9D1"/>
<path d="M135.988 157.719C135.988 159.54 134.514 161.014 132.693 161.014C130.873 161.014 129.398 159.54 129.398 157.719C129.398 155.899 130.873 154.425 132.693 154.425C134.514 154.425 135.988 155.899 135.988 157.719Z" fill="#D5ECEF"/>
<path d="M134.639 157.719C134.639 158.796 133.769 159.665 132.693 159.665C131.617 159.665 130.747 158.796 130.747 157.719C130.747 156.643 131.617 155.774 132.693 155.774C133.769 155.774 134.639 156.643 134.639 157.719Z" fill="white"/>
<path d="M131.75 198.914C131.75 200.211 130.696 201.265 129.398 201.265C128.101 201.265 127.047 200.211 127.047 198.914C127.047 197.616 128.101 196.562 129.398 196.562C130.696 196.562 131.75 197.616 131.75 198.914Z" fill="#8CC9D1"/>
<path d="M132.693 196.865C132.693 198.685 131.219 200.159 129.398 200.159C127.578 200.159 126.104 198.685 126.104 196.865C126.104 195.044 127.578 193.57 129.398 193.57C131.219 193.57 132.693 195.044 132.693 196.865Z" fill="#D5ECEF"/>
<path d="M131.337 196.865C131.337 197.941 130.467 198.81 129.391 198.81C128.315 198.81 127.445 197.941 127.445 196.865C127.445 195.788 128.315 194.919 129.391 194.919C130.467 194.919 131.337 195.788 131.337 196.865Z" fill="white"/>
<path d="M114.65 128.473H97.8302C95.856 128.473 94.2555 130.073 94.2555 132.048V135.158C94.2555 137.132 95.856 138.733 97.8302 138.733H114.65C116.624 138.733 118.225 137.132 118.225 135.158V132.048C118.225 130.073 116.624 128.473 114.65 128.473Z" fill="#8CC9D1"/>
<path d="M116.434 126.195H96.0392C93.9021 126.195 92.1697 127.928 92.1697 130.065V132.586C92.1697 134.723 93.9021 136.455 96.0392 136.455H116.434C118.571 136.455 120.303 134.723 120.303 132.586V130.065C120.303 127.928 118.571 126.195 116.434 126.195Z" fill="#E5AB47"/>
<path d="M114.893 127.515H97.5871C95.906 127.515 94.5431 128.878 94.5431 130.559V132.099C94.5431 133.78 95.906 135.143 97.5871 135.143H114.893C116.574 135.143 117.937 133.78 117.937 132.099V130.559C117.937 128.878 116.574 127.515 114.893 127.515Z" fill="#C47F3E"/>
</g>
<path d="M111.082 47.728C111.082 53.1822 110.367 61.5036 105.142 61.5036C99.9158 61.5036 92.1693 53.1822 92.1693 47.728C92.1693 42.2737 96.4 37.8588 101.626 37.8588C106.852 37.8588 111.082 42.2811 111.082 47.728Z" fill="url(#paint1_linear_1633_4996)"/>
<path d="M152.896 47.728C152.896 53.1822 153.611 61.5036 158.837 61.5036C164.062 61.5036 171.809 53.1822 171.809 47.728C171.809 42.2737 167.578 37.8588 162.352 37.8588C157.127 37.8588 152.896 42.2811 152.896 47.728Z" fill="url(#paint2_linear_1633_4996)"/>
<path d="M163.605 34.9474C163.605 36.9817 162.934 42.3843 161.254 48.8483C157.554 63.0809 144.648 82.473 131.993 82.473C119.337 82.473 106.431 63.0883 102.731 48.8557C101.051 42.3843 100.373 36.9817 100.373 34.9474C100.373 16.7125 114.532 1.93448 131.985 1.93448C149.439 1.93448 163.605 16.7125 163.605 34.9474Z" fill="url(#paint3_linear_1633_4996)"/>
<path d="M163.605 34.9474C163.605 36.9817 162.935 42.3843 161.254 48.8483C137.484 43.1803 132.008 13.2852 132.008 13.2852C132.008 13.2852 126.524 43.1951 102.739 48.8483C101.058 42.3769 100.38 36.9743 100.38 34.94C100.38 16.7052 114.539 1.92712 131.993 1.92712C149.446 1.92712 163.613 16.7052 163.613 34.94L163.605 34.9474Z" fill="#B87356"/>
<path d="M127.364 53.9414C130.452 55.6366 133.533 55.6366 136.614 53.9414C135.663 55.5777 133.821 57.4203 131.985 57.4203C130.15 57.4203 128.315 55.5777 127.357 53.9414H127.364Z" fill="#B87356"/>
<path d="M102.171 36.5394V91.1334C102.171 91.1334 116.883 71.6456 102.171 36.5394Z" fill="#C47F3E"/>
<path d="M161.807 36.5394V91.1334C161.807 91.1334 147.095 71.6456 161.807 36.5394Z" fill="#C47F3E"/>
<path d="M119.308 49.6812C120.757 49.6812 121.932 48.0081 121.932 45.9443C121.932 43.8805 120.757 42.2074 119.308 42.2074C117.859 42.2074 116.684 43.8805 116.684 45.9443C116.684 48.0081 117.859 49.6812 119.308 49.6812Z" fill="#101C26"/>
<path d="M144.678 49.6812C146.127 49.6812 147.302 48.0081 147.302 45.9443C147.302 43.8805 146.127 42.2074 144.678 42.2074C143.228 42.2074 142.054 43.8805 142.054 45.9443C142.054 48.0081 143.228 49.6812 144.678 49.6812Z" fill="#101C26"/>
<path d="M122.809 63.2873H141.169C139.275 67.12 135.634 71.4318 131.993 71.4318C128.352 71.4318 124.703 67.12 122.816 63.2873H122.809Z" fill="#A55235"/>
<path d="M141.169 63.2873C140.948 63.7443 140.69 64.2012 140.425 64.6656C138.626 66.1102 135.523 67.061 131.993 67.061C128.462 67.061 125.359 66.1102 123.561 64.6656C123.281 64.2012 123.038 63.7443 122.816 63.2873H141.177H141.169Z" fill="white"/>
<path d="M112.372 38.5C112.372 38.5 119.971 36.7016 123.87 36.7016C127.769 36.7016 122.043 30.3187 112.372 38.5Z" fill="#7B3321"/>
<path d="M151.628 38.5C151.628 38.5 144.029 36.7016 140.13 36.7016C136.231 36.7016 141.958 30.3187 151.628 38.5Z" fill="#7B3321"/>
<path d="M132 0.379303C92.3833 0.379303 97.7933 42.5907 97.7933 42.5907C125.868 42.5907 132 14.1918 132 14.1918C132 14.1918 138.133 42.5907 166.207 42.5907C166.207 42.5907 171.617 0.379303 132 0.379303Z" fill="#D49542"/>
<path d="M114.502 9.37879C114.502 9.37879 101.353 19.3954 101.353 34.3283C101.353 34.3283 102.82 27.3409 107.419 23.722C107.419 23.722 105.488 28.874 106.498 33.3774C106.498 33.3774 110.596 20.103 116.05 19.1596C116.05 19.1596 114.952 26.9798 113.014 30.5398C113.014 30.5398 123.347 20.6927 124.202 13.3442C125.057 5.99569 123.399 5.88513 123.399 5.88513C123.399 5.88513 119.824 13.2336 114.502 15.3637C114.502 15.3637 112.711 14.7593 114.502 9.37142V9.37879Z" fill="#E5AB47"/>
<path d="M136.857 5.88513C136.857 5.88513 134.86 27.5326 154.687 32.0802C154.687 32.0802 142.606 17.398 136.857 5.88513Z" fill="#E5AB47"/>
<path d="M145.746 5.71561C145.746 5.71561 157.023 11.8406 159.75 22.1299L153.692 16.2261C153.692 16.2261 154.296 21.4813 155.269 24.2527C155.269 24.2527 146.734 19.8819 145.746 5.71561Z" fill="#E5AB47"/>
<path d="M132 14.1918C132 14.1918 128.691 4.75006 132 0.379303C132 0.379303 135.98 2.99586 132 14.1918Z" fill="#C47F3E"/>
<path d="M123.517 55.2386C123.06 57.3171 119.433 58.2974 115.409 57.4203C111.385 56.5432 108.488 54.1404 108.945 52.0619C109.402 49.9834 113.028 49.0031 117.053 49.8802C121.077 50.7573 123.974 53.1601 123.517 55.2386Z" fill="#F4DABF"/>
<path d="M140.491 55.2386C140.948 57.3171 144.574 58.2974 148.599 57.4203C152.623 56.5432 155.52 54.1404 155.063 52.0619C154.606 49.9834 150.979 49.0031 146.955 49.8802C142.931 50.7573 140.034 53.1601 140.491 55.2386Z" fill="#F4DABF"/>
<path d="M132.693 93.5583C124.29 93.5583 117.288 90.7796 111.886 85.3033C105.414 78.7435 102.451 69.4197 101.102 62.7566C99.6505 55.5629 99.7094 49.8212 99.7094 49.7623L100.97 49.777C100.97 49.836 100.911 55.4671 102.341 62.5355C103.653 69.0216 106.535 78.0875 112.785 84.4188C117.937 89.6446 124.637 92.2906 132.685 92.2906C140.734 92.2906 147.154 89.6593 152.1 84.4778C158.254 78.0285 160.885 68.6973 162.006 62.0122C163.222 54.7301 162.971 48.9368 162.971 48.8778L164.232 48.8188C164.232 48.8778 164.49 54.8111 163.251 62.2186C162.102 69.0806 159.389 78.6698 153.014 85.3475C147.817 90.787 140.977 93.551 132.685 93.551L132.693 93.5583Z" fill="white"/>
<path d="M132.693 94.2733C121.475 94.2733 112.8 89.5045 106.903 80.0997C106.505 79.4658 106.697 78.6329 107.331 78.2349C107.964 77.8369 108.797 78.0285 109.195 78.6624C114.569 87.227 122.477 91.5683 132.7 91.5683C142.923 91.5683 150.485 87.2344 155.571 78.6845C155.954 78.0433 156.78 77.8295 157.421 78.2128C158.062 78.5961 158.276 79.4216 157.893 80.0628C152.291 89.4898 143.815 94.2659 132.7 94.2659L132.693 94.2733Z" fill="#29486E"/>
<path d="M101.626 51.7892C101.626 53.934 102.798 55.6809 100.653 55.6809C98.5079 55.6809 96.7611 53.9414 96.7611 51.7892C96.7611 49.637 98.5006 47.8975 100.653 47.8975C102.805 47.8975 101.626 49.637 101.626 51.7892Z" fill="#29486E"/>
<path d="M167.239 51.7892C167.239 53.934 165.499 55.6809 163.347 55.6809C161.195 55.6809 162.345 53.9414 162.345 51.7892C162.345 49.637 161.195 47.8975 163.347 47.8975C165.499 47.8975 167.239 49.637 167.239 51.7892Z" fill="#29486E"/>
<path d="M90.113 150.695C82.6835 150.695 76.4479 147.931 71.5833 142.492C67.6769 138.121 64.6329 131.974 62.5322 124.22C60.8739 118.095 59.7978 110.946 59.326 102.963C58.53 89.4234 59.7904 77.999 59.7978 77.8811C59.8788 77.1367 60.5496 76.606 61.2866 76.6871C62.0311 76.7681 62.5617 77.4389 62.4807 78.1759C62.4659 78.2865 61.235 89.5193 62.0237 102.838C63.0556 120.277 67.0578 133.36 73.5955 140.679C77.9294 145.521 83.4869 147.983 90.113 147.983C104.847 147.983 116.249 138.784 124.003 120.645C129.885 106.892 131.329 92.9171 131.344 92.7771C131.418 92.0326 132.081 91.4946 132.818 91.5683C133.563 91.642 134.101 92.3054 134.027 93.0424C133.968 93.6247 132.538 107.518 126.502 121.648C122.927 130.013 118.482 136.691 113.271 141.504C106.682 147.592 98.884 150.68 90.0983 150.68L90.113 150.695Z" fill="#29486E"/>
<path d="M29.9982 124.478C29.9982 124.478 39.5505 114.137 49.1396 113.312C58.7287 112.486 68.8854 115.825 68.8854 115.825C68.8854 115.825 58.8172 138.482 52.2058 141.327C45.5943 144.172 29.9982 124.478 29.9982 124.478Z" fill="#4C7F98"/>
<path d="M68.893 131.325L64.9792 101.467L66.1806 84.5809L64.5001 63.1104C64.5001 60.9361 62.7386 59.1819 60.5716 59.1819C58.4046 59.1819 56.6431 60.9435 56.6431 63.1104L57.6012 75.1097L48.8081 72.1025C40.7668 81.2789 38.7915 94.2954 43.7445 105.454L47.3856 161.021C47.3856 161.021 72.8068 161.191 68.893 131.333V131.325Z" fill="url(#paint4_linear_1633_4996)"/>
<path d="M57.6013 75.1098L66.1806 84.581L64.736 65.2037L56.9895 67.4959L57.6013 75.1098Z" fill="url(#paint5_linear_1633_4996)"/>
<path d="M66.1805 84.581L57.6011 75.1097C57.6011 75.1097 42.7641 76.5912 46.9064 85.576C51.0561 94.5607 66.1805 84.581 66.1805 84.581Z" fill="url(#paint6_linear_1633_4996)"/>
<path d="M65.1643 86.3236C70.9976 84.1066 73.9291 77.5806 71.7121 71.7474C69.4951 65.9141 62.9691 62.9826 57.1359 65.1996C51.3026 67.4166 48.3711 73.9426 50.5881 79.7758C52.8051 85.6091 59.3311 88.5406 65.1643 86.3236Z" fill="white"/>
<path d="M64.5757 83.9621C69.1053 82.0692 71.2428 76.8627 69.3499 72.3331C67.457 67.8035 62.2505 65.666 57.7209 67.5589C53.1913 69.4518 51.0538 74.6583 52.9467 79.1879C54.8396 83.7175 60.0461 85.855 64.5757 83.9621Z" fill="#AEDAE1"/>
<path d="M61.1463 84.6547C64.7977 84.6547 67.7578 81.6946 67.7578 78.0432C67.7578 74.3919 64.7977 71.4318 61.1463 71.4318C57.4949 71.4318 54.5349 74.3919 54.5349 78.0432C54.5349 81.6946 57.4949 84.6547 61.1463 84.6547Z" fill="#4C7F98"/>
<path d="M64.9792 101.467L53.6801 105.631L63.8367 86.8511C66.129 83.667 69.4973 82.2445 72.2982 83.2764L74.0082 83.9102L70.7577 92.7402C69.6521 95.7327 67.7653 101.216 64.9865 101.474L64.9792 101.467Z" fill="url(#paint7_linear_1633_4996)"/>
<path d="M45.4987 92.2095C43.4202 92.2243 41.7175 90.5511 41.7028 88.4726L41.5406 67.4591C41.5406 66.7294 42.1229 66.125 42.86 66.125L45.2997 66.1029C47.3782 66.0881 49.0808 67.7613 49.0955 69.8398L49.2356 88.4063C49.2503 90.4848 47.5772 92.1874 45.4987 92.2022V92.2095Z" fill="url(#paint8_linear_1633_4996)"/>
<path d="M44.4963 93.433C42.1451 92.7255 40.811 90.2489 41.5186 87.8977L47.0171 69.5892C47.2972 68.6605 48.2774 68.1298 49.2135 68.4099L51.7858 69.1838C54.1371 69.8914 55.4711 72.3679 54.7636 74.7191L50.039 90.4553C49.3314 92.8065 46.8549 94.1406 44.5037 93.433H44.4963Z" fill="url(#paint9_linear_1633_4996)"/>
<path d="M47.0244 100.634C44.8649 101.585 42.3441 100.605 41.3933 98.445L34.0227 81.6917C33.7721 81.1315 34.0301 80.4755 34.5903 80.2249L37.4795 78.9498C39.6391 77.999 42.1599 78.9793 43.1107 81.1389L49.2061 94.9956C50.1569 97.1552 49.1767 99.6759 47.0171 100.627L47.0244 100.634Z" fill="url(#paint10_linear_1633_4996)"/>
<path d="M64.9792 101.467L53.6801 105.631C53.6801 105.631 59.0237 109.892 65.672 106.759L64.9792 101.46V101.467Z" fill="#B87356"/>
<path d="M62.4953 89.3276L60.6453 92.7549C60.6453 92.7549 55.3384 92.5707 53.6801 96.5213C53.6801 96.5213 54.7046 89.2318 62.4953 89.3276Z" fill="#B87356"/>
<path d="M62.5393 187.828C54.2327 189.044 46.582 182.735 45.4617 173.743L29.9982 124.478C46.3314 133.124 59.4879 130.89 68.8854 115.825L75.5558 169.35C76.6761 178.342 70.846 186.619 62.5393 187.828Z" fill="#AEDAE1"/>
<path d="M61.1466 124.751C53.6802 135.35 34.6936 139.433 45.4694 173.743L30.0059 124.478C42.2558 130.964 52.722 131.333 61.1466 124.751Z" fill="white"/>
<path d="M202.824 168.097C202.824 168.097 213.032 218.578 176.835 218.578C148.252 218.578 168.551 181.865 179.54 175.32C190.53 168.775 202.824 168.097 202.824 168.097Z" fill="#8CC9D1"/>
<path d="M190.707 215.217C200.856 201.655 196.308 182.632 191.451 170.249C197.878 168.377 202.824 168.105 202.824 168.105C202.824 168.105 210.069 203.933 190.707 215.217Z" fill="#71B7C3"/>
<path d="M185.371 211.465C191.122 205.714 191.122 196.39 185.371 190.639C179.62 184.888 170.296 184.888 164.545 190.639C158.794 196.39 158.794 205.714 164.545 211.465C170.296 217.216 179.62 217.216 185.371 211.465Z" fill="#4C7F98"/>
<path d="M207.423 160.616C207.423 144.438 194.311 131.325 178.133 131.325C168.632 131.325 160.192 135.843 154.841 142.853C149.49 135.843 141.051 131.325 131.55 131.325C115.372 131.325 102.26 144.438 102.26 160.616C102.26 160.697 102.26 160.778 102.26 160.859C102.26 160.859 99.562 193.54 154.819 225.426C205.352 196.268 207.416 166.439 207.401 161.552C207.409 161.243 207.416 160.926 207.416 160.616H207.423Z" fill="#A55235"/>
<path d="M207.423 160.616C207.423 160.926 207.423 161.243 207.409 161.552C207.423 166.439 205.352 196.268 154.827 225.426C132.081 212.299 119.153 199.039 111.819 187.976C111.819 187.976 139.599 215.778 154.841 215.778C168.145 215.778 199.588 187.43 207.35 158.427C207.401 159.149 207.431 159.886 207.431 160.623L207.423 160.616Z" fill="#7B3321"/>
<path d="M192.336 159.621C192.336 148.086 182.982 138.733 171.448 138.733C164.674 138.733 158.652 141.954 154.842 146.951C151.024 141.954 145.002 138.733 138.236 138.733C126.701 138.733 117.347 148.086 117.347 159.621C117.347 159.68 117.347 159.739 117.347 159.791C117.347 159.791 115.424 183.096 154.834 205.835C190.869 185.042 192.343 163.771 192.336 160.284C192.336 160.063 192.351 159.842 192.351 159.614L192.336 159.621Z" fill="#B87356"/>
<path d="M133.806 167.331H146.616C147.205 167.331 147.684 166.852 147.684 166.262V153.452C147.684 152.862 148.163 152.383 148.753 152.383H160.892C161.482 152.383 161.961 152.862 161.961 153.452V166.262C161.961 166.852 162.44 167.331 163.03 167.331H175.84C176.43 167.331 176.909 167.81 176.909 168.399V180.539C176.909 181.128 176.43 181.607 175.84 181.607H163.03C162.44 181.607 161.961 182.087 161.961 182.676V195.486C161.961 196.076 161.482 196.555 160.892 196.555H148.753C148.163 196.555 147.684 196.076 147.684 195.486V182.676C147.684 182.087 147.205 181.607 146.616 181.607H133.806C133.216 181.607 132.737 181.128 132.737 180.539V168.399C132.737 167.81 133.216 167.331 133.806 167.331Z" fill="white"/>
<path d="M158.143 205.046C156.345 206.1 155.733 208.414 156.787 210.213L163.546 221.77C164.6 223.568 166.914 224.18 168.713 223.126C170.511 222.072 171.123 219.758 170.069 217.959L163.31 206.402C162.256 204.604 159.942 203.992 158.143 205.046Z" fill="url(#paint11_linear_1633_4996)"/>
<path d="M162.028 202.709C160.421 204.036 160.185 206.417 161.512 208.024L170.025 218.357C171.352 219.964 173.732 220.2 175.339 218.873C176.946 217.546 177.182 215.166 175.855 213.559L167.342 203.225C166.015 201.619 163.635 201.383 162.028 202.709Z" fill="url(#paint12_linear_1633_4996)"/>
<path d="M165.212 200.336C163.885 201.943 164.106 204.324 165.713 205.658L176.032 214.193C177.639 215.52 180.019 215.298 181.353 213.692C182.68 212.085 182.459 209.704 180.852 208.37L170.533 199.835C168.927 198.508 166.546 198.729 165.212 200.336Z" fill="url(#paint13_linear_1633_4996)"/>
<path d="M168.33 198.634C167.379 200.491 168.109 202.768 169.966 203.719L181.884 209.829C183.742 210.78 186.019 210.051 186.97 208.193C187.921 206.336 187.191 204.058 185.334 203.107L173.415 196.997C171.558 196.046 169.281 196.776 168.33 198.634Z" fill="url(#paint14_linear_1633_4996)"/>
<defs>
<linearGradient id="paint0_linear_1633_4996" x1="131.993" y1="99.1305" x2="131.993" y2="76.6355" gradientUnits="userSpaceOnUse">
<stop stop-color="#F4DABF"/>
<stop offset="1" stop-color="#CB9579"/>
</linearGradient>
<linearGradient id="paint1_linear_1633_4996" x1="101.626" y1="58.6144" x2="101.626" y2="42.8487" gradientUnits="userSpaceOnUse">
<stop stop-color="#F4DABF"/>
<stop offset="1" stop-color="#CB9579"/>
</linearGradient>
<linearGradient id="paint2_linear_1633_4996" x1="162.352" y1="58.6144" x2="162.352" y2="42.8487" gradientUnits="userSpaceOnUse">
<stop stop-color="#F4DABF"/>
<stop offset="1" stop-color="#CB9579"/>
</linearGradient>
<linearGradient id="paint3_linear_1633_4996" x1="131.993" y1="76.5912" x2="131.993" y2="4.04247" gradientUnits="userSpaceOnUse">
<stop stop-color="#F4DABF"/>
<stop offset="1" stop-color="#CB9579"/>
</linearGradient>
<linearGradient id="paint4_linear_1633_4996" x1="55.1763" y1="83.9987" x2="55.1763" y2="126.866" gradientUnits="userSpaceOnUse">
<stop stop-color="#F4DABF"/>
<stop offset="1" stop-color="#CB9579"/>
</linearGradient>
<linearGradient id="paint5_linear_1633_4996" x1="61.5814" y1="70.3778" x2="61.5814" y2="81.4632" gradientUnits="userSpaceOnUse">
<stop stop-color="#F4DABF"/>
<stop offset="1" stop-color="#CB9579"/>
</linearGradient>
<linearGradient id="paint6_linear_1633_4996" x1="56.1786" y1="78.9056" x2="56.1786" y2="87.0427" gradientUnits="userSpaceOnUse">
<stop stop-color="#F4DABF"/>
<stop offset="1" stop-color="#CB9579"/>
</linearGradient>
<linearGradient id="paint7_linear_1633_4996" x1="65.9854" y1="89.9976" x2="50.3256" y2="128.569" gradientUnits="userSpaceOnUse">
<stop stop-color="#F4DABF"/>
<stop offset="1" stop-color="#CB9579"/>
</linearGradient>
<linearGradient id="paint8_linear_1633_4996" x1="37.7374" y1="69.5818" x2="47.017" y2="81.1757" gradientUnits="userSpaceOnUse">
<stop stop-color="#F4DABF"/>
<stop offset="1" stop-color="#CB9579"/>
</linearGradient>
<linearGradient id="paint9_linear_1633_4996" x1="49.1177" y1="76.8271" x2="44.8206" y2="96.396" gradientUnits="userSpaceOnUse">
<stop stop-color="#F4DABF"/>
<stop offset="1" stop-color="#CB9579"/>
</linearGradient>
<linearGradient id="paint10_linear_1633_4996" x1="42.4406" y1="80.6618" x2="38.3732" y2="130.454" gradientUnits="userSpaceOnUse">
<stop stop-color="#F4DABF"/>
<stop offset="1" stop-color="#CB9579"/>
</linearGradient>
<linearGradient id="paint11_linear_1633_4996" x1="161.173" y1="213.758" x2="174.801" y2="215.755" gradientUnits="userSpaceOnUse">
<stop stop-color="#F4DABF"/>
<stop offset="1" stop-color="#CB9579"/>
</linearGradient>
<linearGradient id="paint12_linear_1633_4996" x1="167.681" y1="210.751" x2="177.425" y2="211.193" gradientUnits="userSpaceOnUse">
<stop stop-color="#F4DABF"/>
<stop offset="1" stop-color="#CB9579"/>
</linearGradient>
<linearGradient id="paint13_linear_1633_4996" x1="174.919" y1="207.065" x2="181.987" y2="207.287" gradientUnits="userSpaceOnUse">
<stop stop-color="#F4DABF"/>
<stop offset="1" stop-color="#CB9579"/>
</linearGradient>
<linearGradient id="paint14_linear_1633_4996" x1="179.43" y1="203.395" x2="185.459" y2="203.321" gradientUnits="userSpaceOnUse">
<stop stop-color="#F4DABF"/>
<stop offset="1" stop-color="#CB9579"/>
</linearGradient>
</defs>
</svg>
